# xmcd
#
# Track frame offsets: 
#        150
#        18748
#        55251
#        71907
#        90070
#        119181
#        150435
#        178197
#        216248
#        244687
#        272828
#
# Disc length: 3875 seconds
#
# Revision: 1
# Processed by: cddbd v1.5.2PL0 Copyright (c) Steve Scherf et al.
# Submitted via: ExactAudioCopy v0.99pb5
#
DISCID=9e0f210b
DTITLE=Chris Duarte Group - Infinite Energy
DYEAR=2010
DGENRE=Blues Rock
TTITLE0=Ridin'
TTITLE1=City Life Blues
TTITLE2=Cross My Heart
TTITLE3=Waiting on You
TTITLE4=Sundown Blues
TTITLE5=Cold Cold Day
TTITLE6=My Heart Don't Want to Let You Go
TTITLE7=Killing Time
TTITLE8=Purple Gloaming
TTITLE9=Me All Me
TTITLE10=Hamra St.
EXTD=
EXTT0=
EXTT1=
EXTT2=
EXTT3=
EXTT4=
EXTT5=
EXTT6=
EXTT7=
EXTT8=
EXTT9=
EXTT10=
PLAYORDER=
